<svg width="330" height="54" viewBox="0 0 330 54" fill="none" xmlns="http://www.w3.org/2000/svg">
<rect width="330" height="54" rx="10" fill="#B8926A"/>
<path d="M151.032 24.024C150.904 23.8747 150.733 23.7307 150.52 23.592C150.307 23.4533 150.067 23.3307 149.8 23.224C149.533 23.1067 149.24 23.016 148.92 22.952C148.611 22.8773 148.285 22.84 147.944 22.84C147.069 22.84 146.424 23.0053 146.008 23.336C145.592 23.6667 145.384 24.12 145.384 24.696C145.384 25.1013 145.491 25.4213 145.704 25.656C145.917 25.8907 146.243 26.0827 146.68 26.232C147.128 26.3813 147.693 26.536 148.376 26.696C149.165 26.8667 149.848 27.0747 150.424 27.32C151 27.5653 151.443 27.896 151.752 28.312C152.061 28.7173 152.216 29.2613 152.216 29.944C152.216 30.488 152.109 30.9627 151.896 31.368C151.693 31.7627 151.405 32.0933 151.032 32.36C150.659 32.616 150.221 32.808 149.72 32.936C149.219 33.0533 148.675 33.112 148.088 33.112C147.512 33.112 146.947 33.0533 146.392 32.936C145.848 32.808 145.331 32.6267 144.84 32.392C144.349 32.1573 143.891 31.864 143.464 31.512L144.152 30.296C144.323 30.4773 144.541 30.6587 144.808 30.84C145.085 31.0107 145.395 31.1707 145.736 31.32C146.088 31.4693 146.467 31.592 146.872 31.688C147.277 31.7733 147.693 31.816 148.12 31.816C148.931 31.816 149.56 31.672 150.008 31.384C150.456 31.0853 150.68 30.6533 150.68 30.088C150.68 29.6613 150.552 29.32 150.296 29.064C150.051 28.808 149.683 28.5947 149.192 28.424C148.701 28.2533 148.104 28.0827 147.4 27.912C146.632 27.72 145.987 27.512 145.464 27.288C144.941 27.0533 144.547 26.7493 144.28 26.376C144.024 26.0027 143.896 25.5173 143.896 24.92C143.896 24.1947 144.072 23.5813 144.424 23.08C144.776 22.5787 145.261 22.2 145.88 21.944C146.499 21.688 147.197 21.56 147.976 21.56C148.488 21.56 148.963 21.6133 149.4 21.72C149.848 21.8267 150.264 21.976 150.648 22.168C151.032 22.36 151.384 22.5893 151.704 22.856L151.032 24.024ZM163.246 21.64V33H161.806V27.832H155.55V33H154.11V21.64H155.55V26.552H161.806V21.64H163.246ZM170.577 33.08C169.777 33.08 169.052 32.92 168.401 32.6C167.751 32.28 167.185 31.848 166.705 31.304C166.236 30.7493 165.873 30.1307 165.617 29.448C165.361 28.7547 165.233 28.0453 165.233 27.32C165.233 26.5627 165.367 25.8427 165.633 25.16C165.911 24.4667 166.289 23.8533 166.769 23.32C167.26 22.776 167.831 22.3493 168.481 22.04C169.132 21.72 169.841 21.56 170.609 21.56C171.409 21.56 172.135 21.7253 172.785 22.056C173.436 22.3867 173.996 22.8293 174.465 23.384C174.935 23.9387 175.297 24.5573 175.553 25.24C175.809 25.9227 175.937 26.6213 175.937 27.336C175.937 28.0933 175.804 28.8187 175.537 29.512C175.271 30.1947 174.892 30.808 174.401 31.352C173.921 31.8853 173.356 32.3067 172.705 32.616C172.055 32.9253 171.345 33.08 170.577 33.08ZM166.689 27.32C166.689 27.896 166.78 28.456 166.961 29C167.153 29.5333 167.42 30.008 167.761 30.424C168.103 30.84 168.513 31.1707 168.993 31.416C169.473 31.6613 170.007 31.784 170.593 31.784C171.201 31.784 171.745 31.656 172.225 31.4C172.705 31.144 173.111 30.8027 173.441 30.376C173.783 29.9493 174.039 29.4693 174.209 28.936C174.391 28.4027 174.481 27.864 174.481 27.32C174.481 26.744 174.385 26.1893 174.193 25.656C174.012 25.1227 173.745 24.648 173.393 24.232C173.052 23.8053 172.641 23.4747 172.161 23.24C171.692 22.9947 171.169 22.872 170.593 22.872C169.985 22.872 169.441 23 168.961 23.256C168.481 23.5013 168.071 23.8373 167.729 24.264C167.399 24.6907 167.143 25.1707 166.961 25.704C166.78 26.2267 166.689 26.7653 166.689 27.32ZM177.938 33V21.64H182.674C183.175 21.64 183.634 21.7467 184.05 21.96C184.466 22.1627 184.829 22.44 185.138 22.792C185.447 23.1333 185.687 23.5227 185.858 23.96C186.029 24.3867 186.114 24.824 186.114 25.272C186.114 25.8907 185.975 26.4827 185.698 27.048C185.421 27.6027 185.031 28.056 184.53 28.408C184.029 28.7493 183.442 28.92 182.77 28.92H179.378V33H177.938ZM179.378 27.64H182.69C183.085 27.64 183.426 27.5333 183.714 27.32C184.013 27.1067 184.242 26.8187 184.402 26.456C184.573 26.0933 184.658 25.6987 184.658 25.272C184.658 24.824 184.562 24.424 184.37 24.072C184.178 23.7093 183.927 23.4267 183.618 23.224C183.309 23.0213 182.967 22.92 182.594 22.92H179.378V27.64ZM192.972 24.296V33H191.532V21.64H192.748L199.692 30.52V21.656H201.132V33H199.82L192.972 24.296ZM208.452 33.08C207.652 33.08 206.927 32.92 206.276 32.6C205.626 32.28 205.06 31.848 204.58 31.304C204.111 30.7493 203.748 30.1307 203.492 29.448C203.236 28.7547 203.108 28.0453 203.108 27.32C203.108 26.5627 203.242 25.8427 203.508 25.16C203.786 24.4667 204.164 23.8533 204.644 23.32C205.135 22.776 205.706 22.3493 206.356 22.04C207.007 21.72 207.716 21.56 208.484 21.56C209.284 21.56 210.01 21.7253 210.66 22.056C211.311 22.3867 211.871 22.8293 212.34 23.384C212.81 23.9387 213.172 24.5573 213.428 25.24C213.684 25.9227 213.812 26.6213 213.812 27.336C213.812 28.0933 213.679 28.8187 213.412 29.512C213.146 30.1947 212.767 30.808 212.276 31.352C211.796 31.8853 211.231 32.3067 210.58 32.616C209.93 32.9253 209.22 33.08 208.452 33.08ZM204.564 27.32C204.564 27.896 204.655 28.456 204.836 29C205.028 29.5333 205.295 30.008 205.636 30.424C205.978 30.84 206.388 31.1707 206.868 31.416C207.348 31.6613 207.882 31.784 208.468 31.784C209.076 31.784 209.62 31.656 210.1 31.4C210.58 31.144 210.986 30.8027 211.316 30.376C211.658 29.9493 211.914 29.4693 212.084 28.936C212.266 28.4027 212.356 27.864 212.356 27.32C212.356 26.744 212.26 26.1893 212.068 25.656C211.887 25.1227 211.62 24.648 211.268 24.232C210.927 23.8053 210.516 23.4747 210.036 23.24C209.567 22.9947 209.044 22.872 208.468 22.872C207.86 22.872 207.316 23 206.836 23.256C206.356 23.5013 205.946 23.8373 205.604 24.264C205.274 24.6907 205.018 25.1707 204.836 25.704C204.655 26.2267 204.564 26.7653 204.564 27.32ZM219.536 21.704H220.896L222.4 25.656L223.92 21.704H225.28L223.312 26.648L225.264 31.336L229.104 21.64H230.672L225.92 33H224.672L222.416 27.64L220.144 33H218.896L214.16 21.64H215.712L219.568 31.336L221.504 26.648L219.536 21.704Z" fill="#EAE6DF"/>
<path d="M114 26C114.552 26 115 25.5523 115 25C115 24.4477 114.552 24 114 24C113.448 24 113 24.4477 113 25C113 25.5523 113.448 26 114 26Z" fill="#EAE6DF"/>
<path d="M109 25C109 25.5523 108.552 26 108 26C107.448 26 107 25.5523 107 25C107 24.4477 107.448 24 108 24C108.552 24 109 24.4477 109 25Z" fill="#EAE6DF"/>
<path fill-rule="evenodd" clip-rule="evenodd" d="M107.25 20.2757V20C107.25 17.9289 108.929 16.25 111 16.25C113.071 16.25 114.75 17.9289 114.75 20V20.2757C115.408 20.296 115.995 20.3326 116.515 20.3982C117.716 20.5496 118.689 20.8682 119.44 21.6018C119.69 21.8466 119.913 22.1183 120.104 22.412C120.676 23.2925 120.798 24.3084 120.711 25.516C120.625 26.6979 120.329 28.1818 119.952 30.0648L119.933 30.1604C119.671 31.4673 119.463 32.5074 119.206 33.3256C118.941 34.1683 118.602 34.8497 118.036 35.4017C117.841 35.5915 117.631 35.7643 117.406 35.918C116.754 36.3651 116.019 36.5634 115.141 36.6581C114.288 36.75 113.228 36.75 111.895 36.75H110.105C108.772 36.75 107.712 36.75 106.859 36.6581C105.981 36.5634 105.246 36.3651 104.594 35.918C104.369 35.7643 104.159 35.5915 103.964 35.4017C103.398 34.8497 103.059 34.1683 102.794 33.3256C102.537 32.5074 102.329 31.4673 102.067 30.1604L102.048 30.065C101.672 28.1819 101.375 26.698 101.29 25.516C101.202 24.3084 101.324 23.2925 101.896 22.412C102.087 22.1183 102.31 21.8466 102.56 21.6018C103.312 20.8682 104.284 20.5496 105.485 20.3982C106.005 20.3326 106.592 20.2961 107.25 20.2757ZM108.75 20C108.75 18.7574 109.757 17.75 111 17.75C112.243 17.75 113.25 18.7574 113.25 20V20.2522C112.826 20.25 112.378 20.25 111.906 20.25H110.095C109.622 20.25 109.174 20.25 108.75 20.2522V20ZM103.608 22.6749C104.023 22.2702 104.616 22.0196 105.673 21.8864C106.744 21.7514 108.162 21.75 110.149 21.75H111.852C113.838 21.75 115.256 21.7514 116.327 21.8864C117.384 22.0196 117.977 22.2702 118.392 22.6749C118.563 22.8424 118.716 23.0283 118.846 23.2293C119.162 23.7151 119.291 24.3462 119.214 25.4081C119.137 26.4847 118.86 27.8761 118.47 29.8238C118.199 31.1827 118.006 32.1434 117.775 32.8755C117.55 33.5919 117.31 34.0145 116.989 34.3275C116.856 34.4573 116.712 34.5755 116.558 34.6808C116.188 34.9343 115.727 35.0863 114.98 35.1667C114.217 35.249 113.237 35.25 111.852 35.25H110.149C108.763 35.25 107.783 35.249 107.02 35.1667C106.273 35.0863 105.812 34.9343 105.442 34.6808C105.288 34.5755 105.144 34.4573 105.011 34.3275C104.69 34.0145 104.45 33.5919 104.225 32.8755C103.995 32.1434 103.801 31.1828 103.53 29.8238C103.14 27.8761 102.863 26.4847 102.786 25.4081C102.709 24.3462 102.838 23.7151 103.154 23.2293C103.285 23.0283 103.437 22.8424 103.608 22.6749Z" fill="#EAE6DF"/>
</svg>
